<svg width="79" height="82" fill="none" xmlns="http://www.w3.org/2000/svg"><path d="M74.992 42.062a2.4 2.4 0 010-2.124l3.063-6.256a7.114 7.114 0 00-3.076-9.453l-6.16-3.264a2.403 2.403 0 01-1.25-1.718l-1.205-6.86a7.127 7.127 0 00-8.052-5.842l-6.905.975a2.408 2.408 0 01-2.023-.656l-5.012-4.842a7.135 7.135 0 00-9.953 0l-5.012 4.842a2.41 2.41 0 01-2.023.657l-6.905-.976a7.126 7.126 0 00-8.052 5.843l-1.205 6.859a2.404 2.404 0 01-1.25 1.718l-6.16 3.264a7.114 7.114 0 00-3.076 9.453L3.8 39.938a2.4 2.4 0 010 2.124L.736 48.32a7.114 7.114 0 003.076 9.453l6.16 3.264a2.4 2.4 0 011.25 1.718l1.205 6.859a7.121 7.121 0 007.027 5.915c.338 0 .68-.024 1.026-.073l6.904-.975a2.408 2.408 0 012.023.656l5.012 4.842A7.14 7.14 0 0039.396 82a7.14 7.14 0 004.976-2.022l5.012-4.842a2.41 2.41 0 012.023-.656l6.905.975a7.126 7.126 0 008.052-5.842l1.205-6.86a2.407 2.407 0 011.25-1.718l6.16-3.263a7.114 7.114 0 003.076-9.453l-3.063-6.257zM29.924 19.718c4.787 0 8.682 3.89 8.682 8.67 0 4.781-3.895 8.671-8.682 8.671-4.788 0-8.683-3.89-8.683-8.67 0-4.781 3.895-8.671 8.683-8.671zm-4.482 38.56a2.362 2.362 0 01-1.674.693c-.606 0-1.213-.23-1.675-.693a2.362 2.362 0 010-3.344L53.35 23.722a2.37 2.37 0 013.349 0c.925.923.925 2.42 0 3.344L25.442 58.278zm23.425 4.004c-4.787 0-8.682-3.89-8.682-8.67 0-4.781 3.895-8.67 8.682-8.67 4.788 0 8.683 3.889 8.683 8.67 0 4.78-3.895 8.67-8.683 8.67z" fill="#FFBF46"/><path d="M48.867 49.67a3.948 3.948 0 00-3.946 3.942 3.948 3.948 0 003.946 3.94 3.948 3.948 0 003.947-3.94 3.948 3.948 0 00-3.947-3.941zM29.924 24.447a3.948 3.948 0 00-3.947 3.941 3.948 3.948 0 003.947 3.942 3.948 3.948 0 003.946-3.942 3.949 3.949 0 00-3.946-3.94z" fill="#FFBF46"/></svg>