<svg width="79" height="82" viewBox="0 0 79 82" fill="none" xmlns="http://www.w3.org/2000/svg">
<path d="M74.9924 42.0621C74.6621 41.3871 74.6621 40.6129 74.9924 39.938L78.055 33.6816C79.7601 30.1981 78.4091 26.0461 74.9793 24.2288L68.8192 20.9648C68.1546 20.6128 67.699 19.9863 67.5689 19.2465L66.3641 12.3873C65.6933 8.56824 62.1557 6.00193 58.3119 6.54501L51.4071 7.52035C50.6619 7.62541 49.9249 7.38614 49.3843 6.86388L44.3723 2.02209C41.5816 -0.67395 37.2097 -0.67411 34.4191 2.02209L29.407 6.86436C28.8662 7.38678 28.1293 7.62557 27.3842 7.52083L20.4794 6.54549C16.6344 6.00209 13.098 8.56872 12.4272 12.3878L11.2224 19.2467C11.0924 19.9866 10.6367 20.613 9.97229 20.9652L3.81218 24.2291C0.382342 26.0462 -0.96868 30.1985 0.736455 33.6821L3.79887 39.9383C4.12925 40.6134 4.12925 41.3876 3.79887 42.0625L0.736295 48.3187C-0.968841 51.8022 0.382181 55.9542 3.81202 57.7715L9.97213 61.0355C10.6367 61.3875 11.0924 62.014 11.2224 62.7538L12.4272 69.613C13.0379 73.0896 16.0232 75.5278 19.4541 75.5275C19.792 75.5275 20.1349 75.5038 20.4796 75.4551L27.3843 74.4798C28.129 74.3742 28.8664 74.614 29.4072 75.1363L34.4191 79.978C35.8147 81.3262 37.6049 82.0002 39.3957 82C41.186 81.9998 42.9772 81.3259 44.3722 79.978L49.3843 75.1363C49.9251 74.614 50.6622 74.3754 51.4071 74.4798L58.3119 75.4551C62.1574 75.9984 65.6933 73.4319 66.3641 69.6128L67.569 62.7539C67.6991 62.014 68.1547 61.3876 68.8192 61.0355L74.9793 57.7715C78.4091 55.9544 79.7601 51.8021 78.055 48.3186L74.9924 42.0621ZM29.9236 19.7179C34.7112 19.7179 38.6063 23.6075 38.6063 28.3885C38.6063 33.1694 34.7112 37.0591 29.9236 37.0591C25.136 37.0591 21.2409 33.1694 21.2409 28.3885C21.2409 23.6075 25.136 19.7179 29.9236 19.7179ZM25.442 58.2782C24.9796 58.74 24.3736 58.9709 23.7677 58.9709C23.1617 58.9709 22.5555 58.7401 22.0933 58.2782C21.1686 57.3548 21.1686 55.8575 22.0933 54.9341L53.3492 23.7217C54.2737 22.7983 55.7733 22.7983 56.698 23.7217C57.6227 24.6452 57.6227 26.1425 56.698 27.0659L25.442 58.2782ZM48.8674 62.2824C44.0798 62.2824 40.1847 58.3928 40.1847 53.6118C40.1847 48.8309 44.0798 44.9412 48.8674 44.9412C53.655 44.9412 57.5501 48.8309 57.5501 53.6118C57.5501 58.3928 53.655 62.2824 48.8674 62.2824Z" fill="#FFBF46"/>
<path d="M48.8674 49.6707C46.6912 49.6707 44.9207 51.4387 44.9207 53.6118C44.9207 55.785 46.6911 57.5529 48.8674 57.5529C51.0436 57.5529 52.814 55.785 52.814 53.6118C52.814 51.4387 51.0436 49.6707 48.8674 49.6707Z" fill="#FFBF46"/>
<path d="M29.9236 24.4472C27.7474 24.4472 25.977 26.2152 25.977 28.3883C25.977 30.5614 27.7474 32.3295 29.9236 32.3295C32.0998 32.3295 33.8703 30.5616 33.8703 28.3883C33.8702 26.2153 32.0998 24.4472 29.9236 24.4472Z" fill="#FFBF46"/>
</svg>
